<svg xmlns="http://www.w3.org/2000/svg" xmlns:xlink="http://www.w3.org/1999/xlink" width="175" zoomAndPan="magnify" viewBox="0 0 131.25 30.000001" height="40" preserveAspectRatio="xMidYMid meet" version="1.0"><defs><g/><clipPath id="1f37ab68d7"><path d="M 12.015625 15.617188 L 30.097656 15.617188 L 30.097656 29.027344 L 12.015625 29.027344 Z M 12.015625 15.617188 " clip-rule="nonzero"/></clipPath><clipPath id="adab5c3d0e"><path d="M 1.753906 14.398438 L 31.511719 14.398438 L 31.511719 16.894531 L 1.753906 16.894531 Z M 1.753906 14.398438 " clip-rule="nonzero"/></clipPath></defs><path fill="#80cc28" d="M 13.636719 19.578125 C 14.726562 18.554688 14.292969 16.816406 13.375 15.636719 L 3.292969 15.636719 C 3.292969 21.105469 6.570312 25.804688 11.265625 27.882812 C 10.460938 23.21875 12.730469 20.433594 13.636719 19.578125 " fill-opacity="1" fill-rule="nonzero"/><g clip-path="url(#1f37ab68d7)"><path fill="#80cc28" d="M 23.828125 15.636719 C 22.910156 17.058594 21.277344 18.929688 18.675781 19.898438 C 14.8125 21.335938 10.851562 22.230469 12.335938 28.300781 C 13.699219 28.769531 15.160156 29.027344 16.683594 29.027344 C 24.078125 29.027344 30.074219 23.03125 30.074219 15.636719 L 23.828125 15.636719 " fill-opacity="1" fill-rule="nonzero"/></g><path fill="#61ad09" d="M 14.296875 10.59375 C 13.453125 9.21875 12.714844 7.703125 12.59375 6.472656 C 12.59375 6.472656 13.546875 7.875 14.757812 9.386719 C 15.296875 8.226562 16.132812 7.011719 17.394531 5.804688 C 16.113281 3.722656 13.707031 1.585938 9.308594 0.00390625 C 9.308594 0.00390625 6.949219 5.546875 9.332031 9.832031 C 10.222656 11.820312 11.84375 13.34375 13.984375 14.507812 C 13.832031 13.4375 13.839844 12.082031 14.296875 10.59375 " fill-opacity="1" fill-rule="nonzero"/><path fill="#61ad09" d="M 24.058594 3.941406 C 11.945312 8.304688 14.929688 16.867188 14.929688 16.867188 C 17.035156 15.929688 20.773438 10.410156 20.773438 10.410156 C 20.546875 12.679688 18.238281 15.902344 17.03125 17.453125 C 17.003906 17.484375 15.5 19.152344 14.609375 19.644531 C 12.625 20.734375 12.683594 21.824219 12.589844 22.296875 C 12.585938 22.3125 12.585938 22.324219 12.582031 22.332031 C 12.675781 22.078125 13.3125 20.777344 16.25 19.789062 C 19.945312 18.546875 22.75 16.636719 24.035156 13.769531 C 26.417969 9.484375 24.058594 3.941406 24.058594 3.941406 " fill-opacity="1" fill-rule="nonzero"/><g clip-path="url(#adab5c3d0e)"><path fill="#80cc28" d="M 30.375 14.398438 L 24.53125 14.398438 C 24.246094 14.980469 23.726562 15.914062 22.910156 16.875 L 30.375 16.875 C 31.058594 16.875 31.613281 16.320312 31.613281 15.636719 C 31.613281 14.953125 31.058594 14.398438 30.375 14.398438 Z M 14.066406 16.875 L 2.992188 16.875 C 2.308594 16.875 1.753906 16.320312 1.753906 15.636719 C 1.753906 14.953125 2.308594 14.398438 2.992188 14.398438 L 11.535156 14.398438 C 12.199219 14.664062 12.855469 15.019531 13.246094 15.472656 C 13.59375 15.878906 13.878906 16.367188 14.066406 16.875 " fill-opacity="1" fill-rule="nonzero"/></g><g fill="#61ad09" fill-opacity="1"><g transform="translate(39.546304, 22.328245)"><g><path d="M 2.207031 -1.503906 L 0.6875 -1.503906 L 0.6875 -2.714844 L 0.339844 -2.714844 L 0.339844 0 L 0.6875 0 L 0.6875 -1.207031 L 2.207031 -1.207031 L 2.207031 0 L 2.558594 0 L 2.558594 -2.714844 L 2.207031 -2.714844 Z M 2.207031 -1.503906 "/></g></g></g><g fill="#61ad09" fill-opacity="1"><g transform="translate(42.442803, 22.328245)"><g><path d="M 2.21875 -0.964844 C 2.21875 -1.597656 1.835938 -1.984375 1.214844 -1.984375 C 0.59375 -1.984375 0.210938 -1.597656 0.210938 -0.964844 C 0.210938 -0.324219 0.621094 0.046875 1.324219 0.046875 C 1.613281 0.046875 1.875 -0.015625 2.070312 -0.125 L 2.070312 -0.398438 C 1.871094 -0.277344 1.621094 -0.214844 1.351562 -0.214844 C 0.863281 -0.214844 0.597656 -0.425781 0.554688 -0.835938 L 2.21875 -0.835938 Z M 1.214844 -1.722656 C 1.609375 -1.722656 1.84375 -1.488281 1.878906 -1.101562 L 0.550781 -1.101562 C 0.585938 -1.488281 0.824219 -1.722656 1.214844 -1.722656 Z M 1.214844 -1.722656 "/></g></g></g><g fill="#61ad09" fill-opacity="1"><g transform="translate(44.871757, 22.328245)"><g><path d="M 1.082031 -1.984375 C 0.824219 -1.984375 0.585938 -1.933594 0.363281 -1.839844 L 0.363281 -1.566406 C 0.582031 -1.667969 0.808594 -1.722656 1.046875 -1.722656 C 1.476562 -1.722656 1.699219 -1.558594 1.699219 -1.246094 L 1.699219 -1.085938 C 1.496094 -1.191406 1.253906 -1.246094 1.003906 -1.246094 C 0.488281 -1.246094 0.183594 -1.011719 0.183594 -0.609375 C 0.183594 -0.207031 0.492188 0.046875 0.984375 0.046875 C 1.332031 0.046875 1.589844 -0.078125 1.722656 -0.304688 L 1.722656 0 L 2.03125 0 L 2.03125 -1.238281 C 2.03125 -1.714844 1.6875 -1.984375 1.082031 -1.984375 Z M 1.050781 -0.214844 C 0.722656 -0.214844 0.519531 -0.359375 0.519531 -0.597656 C 0.519531 -0.839844 0.734375 -0.984375 1.082031 -0.984375 C 1.308594 -0.984375 1.523438 -0.925781 1.699219 -0.8125 L 1.699219 -0.78125 C 1.699219 -0.433594 1.449219 -0.214844 1.050781 -0.214844 Z M 1.050781 -0.214844 "/></g></g></g><g fill="#61ad09" fill-opacity="1"><g transform="translate(47.171471, 22.328245)"><g><path d="M 0.628906 0 L 0.628906 -2.714844 L 0.292969 -2.714844 L 0.292969 0 Z M 0.628906 0 "/></g></g></g><g fill="#61ad09" fill-opacity="1"><g transform="translate(48.091356, 22.328245)"><g><path d="M 1.507812 -1.9375 L 0.808594 -1.9375 L 0.808594 -2.484375 L 0.480469 -2.484375 L 0.480469 -1.9375 L 0.109375 -1.9375 L 0.109375 -1.671875 L 0.480469 -1.671875 L 0.480469 -0.535156 C 0.480469 -0.167969 0.683594 0.046875 1.039062 0.046875 C 1.1875 0.046875 1.332031 0.0078125 1.488281 -0.0742188 L 1.488281 -0.332031 C 1.351562 -0.257812 1.238281 -0.21875 1.128906 -0.21875 C 0.921875 -0.21875 0.808594 -0.347656 0.808594 -0.5625 L 0.808594 -1.671875 L 1.507812 -1.671875 Z M 1.507812 -1.9375 "/></g></g></g><g fill="#61ad09" fill-opacity="1"><g transform="translate(49.786682, 22.328245)"><g><path d="M 1.34375 -1.984375 C 1.023438 -1.984375 0.769531 -1.824219 0.625 -1.558594 L 0.625 -2.714844 L 0.292969 -2.714844 L 0.292969 0 L 0.628906 0 L 0.628906 -0.96875 C 0.628906 -1.425781 0.867188 -1.71875 1.238281 -1.71875 C 1.566406 -1.71875 1.785156 -1.484375 1.785156 -1.136719 L 1.785156 0 L 2.117188 0 L 2.117188 -1.175781 C 2.117188 -1.65625 1.804688 -1.984375 1.34375 -1.984375 Z M 1.34375 -1.984375 "/></g></g></g><g fill="#61ad09" fill-opacity="1"><g transform="translate(52.173824, 22.328245)"><g><path d="M 1.140625 -0.375 L 1.132812 -0.375 L 0.484375 -1.9375 L 0.132812 -1.9375 L 0.96875 -0.0078125 L 0.671875 0.683594 L 1.023438 0.683594 L 2.121094 -1.9375 L 1.773438 -1.9375 Z M 1.140625 -0.375 "/></g></g></g><g fill="#61ad09" fill-opacity="1"><g transform="translate(54.431726, 22.328245)"><g/></g></g><g fill="#61ad09" fill-opacity="1"><g transform="translate(55.572082, 22.328245)"><g><path d="M 1.992188 -2.714844 L 0.339844 -2.714844 L 0.339844 0 L 0.6875 0 L 0.6875 -1.214844 L 1.878906 -1.214844 L 1.878906 -1.496094 L 0.6875 -1.496094 L 0.6875 -2.429688 L 1.992188 -2.429688 Z M 1.992188 -2.714844 "/></g></g></g><g fill="#61ad09" fill-opacity="1"><g transform="translate(57.833786, 22.328245)"><g><path d="M 1.082031 -1.984375 C 0.824219 -1.984375 0.585938 -1.933594 0.363281 -1.839844 L 0.363281 -1.566406 C 0.582031 -1.667969 0.808594 -1.722656 1.046875 -1.722656 C 1.476562 -1.722656 1.699219 -1.558594 1.699219 -1.246094 L 1.699219 -1.085938 C 1.496094 -1.191406 1.253906 -1.246094 1.003906 -1.246094 C 0.488281 -1.246094 0.183594 -1.011719 0.183594 -0.609375 C 0.183594 -0.207031 0.492188 0.046875 0.984375 0.046875 C 1.332031 0.046875 1.589844 -0.078125 1.722656 -0.304688 L 1.722656 0 L 2.03125 0 L 2.03125 -1.238281 C 2.03125 -1.714844 1.6875 -1.984375 1.082031 -1.984375 Z M 1.050781 -0.214844 C 0.722656 -0.214844 0.519531 -0.359375 0.519531 -0.597656 C 0.519531 -0.839844 0.734375 -0.984375 1.082031 -0.984375 C 1.308594 -0.984375 1.523438 -0.925781 1.699219 -0.8125 L 1.699219 -0.78125 C 1.699219 -0.433594 1.449219 -0.214844 1.050781 -0.214844 Z M 1.050781 -0.214844 "/></g></g></g><g fill="#61ad09" fill-opacity="1"><g transform="translate(60.1335, 22.328245)"><g><path d="M 0.886719 0.046875 C 1.40625 0.046875 1.683594 -0.148438 1.683594 -0.503906 C 1.683594 -0.785156 1.511719 -0.972656 1.148438 -1.089844 L 0.847656 -1.1875 C 0.644531 -1.25 0.554688 -1.339844 0.554688 -1.460938 C 0.554688 -1.625 0.722656 -1.722656 1.003906 -1.722656 C 1.1875 -1.722656 1.371094 -1.679688 1.578125 -1.597656 L 1.578125 -1.871094 C 1.382812 -1.945312 1.195312 -1.984375 0.980469 -1.984375 C 0.496094 -1.984375 0.214844 -1.789062 0.214844 -1.460938 C 0.214844 -1.199219 0.386719 -1.007812 0.734375 -0.898438 L 1.058594 -0.792969 C 1.25 -0.730469 1.347656 -0.640625 1.347656 -0.503906 C 1.347656 -0.324219 1.164062 -0.214844 0.847656 -0.214844 C 0.644531 -0.214844 0.453125 -0.257812 0.253906 -0.34375 L 0.253906 -0.0703125 C 0.449219 0.0078125 0.652344 0.046875 0.886719 0.046875 Z M 0.886719 0.046875 "/></g></g></g><g fill="#61ad09" fill-opacity="1"><g transform="translate(62.034091, 22.328245)"><g><path d="M 1.507812 -1.9375 L 0.808594 -1.9375 L 0.808594 -2.484375 L 0.480469 -2.484375 L 0.480469 -1.9375 L 0.109375 -1.9375 L 0.109375 -1.671875 L 0.480469 -1.671875 L 0.480469 -0.535156 C 0.480469 -0.167969 0.683594 0.046875 1.039062 0.046875 C 1.1875 0.046875 1.332031 0.0078125 1.488281 -0.0742188 L 1.488281 -0.332031 C 1.351562 -0.257812 1.238281 -0.21875 1.128906 -0.21875 C 0.921875 -0.21875 0.808594 -0.347656 0.808594 -0.5625 L 0.808594 -1.671875 L 1.507812 -1.671875 Z M 1.507812 -1.9375 "/></g></g></g><g fill="#61ad09" fill-opacity="1"><g transform="translate(63.729416, 22.328245)"><g/></g></g><g fill="#61ad09" fill-opacity="1"><g transform="translate(64.869771, 22.328245)"><g><path d="M 1.40625 -2.714844 L 0.339844 -2.714844 L 0.339844 0 L 1.40625 0 C 2.257812 0 2.816406 -0.542969 2.816406 -1.355469 C 2.816406 -2.171875 2.257812 -2.714844 1.40625 -2.714844 Z M 0.6875 -0.300781 L 0.6875 -2.414062 L 1.40625 -2.414062 C 2.042969 -2.414062 2.457031 -1.992188 2.457031 -1.355469 C 2.457031 -0.722656 2.042969 -0.300781 1.40625 -0.300781 Z M 0.6875 -0.300781 "/></g></g></g><g fill="#61ad09" fill-opacity="1"><g transform="translate(67.914517, 22.328245)"><g><path d="M 2.21875 -0.964844 C 2.21875 -1.597656 1.835938 -1.984375 1.214844 -1.984375 C 0.59375 -1.984375 0.210938 -1.597656 0.210938 -0.964844 C 0.210938 -0.324219 0.621094 0.046875 1.324219 0.046875 C 1.613281 0.046875 1.875 -0.015625 2.070312 -0.125 L 2.070312 -0.398438 C 1.871094 -0.277344 1.621094 -0.214844 1.351562 -0.214844 C 0.863281 -0.214844 0.597656 -0.425781 0.554688 -0.835938 L 2.21875 -0.835938 Z M 1.214844 -1.722656 C 1.609375 -1.722656 1.84375 -1.488281 1.878906 -1.101562 L 0.550781 -1.101562 C 0.585938 -1.488281 0.824219 -1.722656 1.214844 -1.722656 Z M 1.214844 -1.722656 "/></g></g></g><g fill="#61ad09" fill-opacity="1"><g transform="translate(70.343471, 22.328245)"><g><path d="M 0.628906 0 L 0.628906 -2.714844 L 0.292969 -2.714844 L 0.292969 0 Z M 0.628906 0 "/></g></g></g><g fill="#61ad09" fill-opacity="1"><g transform="translate(71.263356, 22.328245)"><g><path d="M 0.671875 -2.421875 L 0.453125 -2.632812 L 0.230469 -2.421875 L 0.453125 -2.210938 Z M 0.621094 0 L 0.621094 -1.9375 L 0.285156 -1.9375 L 0.285156 0 Z M 0.621094 0 "/></g></g></g><g fill="#61ad09" fill-opacity="1"><g transform="translate(72.168036, 22.328245)"><g><path d="M 1.132812 -0.273438 L 1.125 -0.273438 L 0.484375 -1.9375 L 0.132812 -1.9375 L 0.882812 0 L 1.375 0 L 2.121094 -1.9375 L 1.773438 -1.9375 Z M 1.132812 -0.273438 "/></g></g></g><g fill="#61ad09" fill-opacity="1"><g transform="translate(74.425939, 22.328245)"><g><path d="M 2.21875 -0.964844 C 2.21875 -1.597656 1.835938 -1.984375 1.214844 -1.984375 C 0.59375 -1.984375 0.210938 -1.597656 0.210938 -0.964844 C 0.210938 -0.324219 0.621094 0.046875 1.324219 0.046875 C 1.613281 0.046875 1.875 -0.015625 2.070312 -0.125 L 2.070312 -0.398438 C 1.871094 -0.277344 1.621094 -0.214844 1.351562 -0.214844 C 0.863281 -0.214844 0.597656 -0.425781 0.554688 -0.835938 L 2.21875 -0.835938 Z M 1.214844 -1.722656 C 1.609375 -1.722656 1.84375 -1.488281 1.878906 -1.101562 L 0.550781 -1.101562 C 0.585938 -1.488281 0.824219 -1.722656 1.214844 -1.722656 Z M 1.214844 -1.722656 "/></g></g></g><g fill="#61ad09" fill-opacity="1"><g transform="translate(76.854893, 22.328245)"><g><path d="M 0.628906 0 L 0.628906 -1.042969 C 0.628906 -1.464844 0.832031 -1.71875 1.179688 -1.71875 C 1.28125 -1.71875 1.382812 -1.695312 1.542969 -1.640625 L 1.542969 -1.917969 C 1.402344 -1.964844 1.292969 -1.984375 1.1875 -1.984375 C 0.921875 -1.984375 0.726562 -1.855469 0.628906 -1.625 L 0.625 -1.625 L 0.625 -1.9375 L 0.292969 -1.9375 L 0.292969 0 Z M 0.628906 0 "/></g></g></g><g fill="#61ad09" fill-opacity="1"><g transform="translate(78.485598, 22.328245)"><g><path d="M 2.21875 -0.964844 C 2.21875 -1.597656 1.835938 -1.984375 1.214844 -1.984375 C 0.59375 -1.984375 0.210938 -1.597656 0.210938 -0.964844 C 0.210938 -0.324219 0.621094 0.046875 1.324219 0.046875 C 1.613281 0.046875 1.875 -0.015625 2.070312 -0.125 L 2.070312 -0.398438 C 1.871094 -0.277344 1.621094 -0.214844 1.351562 -0.214844 C 0.863281 -0.214844 0.597656 -0.425781 0.554688 -0.835938 L 2.21875 -0.835938 Z M 1.214844 -1.722656 C 1.609375 -1.722656 1.84375 -1.488281 1.878906 -1.101562 L 0.550781 -1.101562 C 0.585938 -1.488281 0.824219 -1.722656 1.214844 -1.722656 Z M 1.214844 -1.722656 "/></g></g></g><g fill="#61ad09" fill-opacity="1"><g transform="translate(80.914552, 22.328245)"><g><path d="M 1.878906 -1.617188 C 1.722656 -1.847656 1.460938 -1.984375 1.140625 -1.984375 C 0.582031 -1.984375 0.210938 -1.578125 0.210938 -0.96875 C 0.210938 -0.359375 0.582031 0.046875 1.136719 0.046875 C 1.480469 0.046875 1.75 -0.109375 1.898438 -0.371094 L 1.898438 0 L 2.207031 0 L 2.207031 -2.714844 L 1.878906 -2.714844 Z M 1.214844 -0.226562 C 0.816406 -0.226562 0.546875 -0.523438 0.546875 -0.96875 C 0.546875 -1.414062 0.816406 -1.710938 1.214844 -1.710938 C 1.609375 -1.710938 1.871094 -1.425781 1.882812 -0.992188 L 1.882812 -0.96875 C 1.882812 -0.523438 1.617188 -0.226562 1.214844 -0.226562 Z M 1.214844 -0.226562 "/></g></g></g><g fill="#80cc28" fill-opacity="1"><g transform="translate(37.501788, 17.100366)"><g><path d="M 0.597656 0 L 2.214844 0 L 2.214844 -2.867188 L 3.304688 -1.339844 L 4.363281 -1.339844 L 5.445312 -2.859375 L 5.445312 0 L 7.0625 0 L 7.0625 -5.65625 L 5.734375 -5.65625 L 3.828125 -2.964844 L 1.929688 -5.65625 L 0.597656 -5.65625 Z M 0.597656 0 "/></g></g></g><g fill="#80cc28" fill-opacity="1"><g transform="translate(45.16023, 17.100366)"><g><path d="M 2.667969 0.121094 C 3.773438 0.121094 4.621094 -0.429688 5 -1.382812 L 3.5 -1.382812 C 3.328125 -1.179688 3.03125 -1.050781 2.699219 -1.050781 C 2.261719 -1.050781 1.898438 -1.285156 1.785156 -1.753906 L 5.082031 -1.753906 C 5.164062 -3.34375 4.199219 -4.394531 2.675781 -4.394531 C 1.246094 -4.394531 0.25 -3.472656 0.25 -2.140625 C 0.25 -0.800781 1.234375 0.121094 2.667969 0.121094 Z M 1.792969 -2.59375 C 1.921875 -3.003906 2.261719 -3.230469 2.691406 -3.230469 C 3.160156 -3.230469 3.472656 -2.988281 3.601562 -2.59375 Z M 1.792969 -2.59375 "/></g></g></g><g fill="#80cc28" fill-opacity="1"><g transform="translate(50.483978, 17.100366)"><g><path d="M 2.714844 0 L 3.578125 0 L 3.578125 -1.308594 L 3.132812 -1.308594 C 2.683594 -1.308594 2.472656 -1.511719 2.472656 -1.957031 L 2.472656 -3.054688 L 3.523438 -3.054688 L 3.523438 -4.273438 L 2.472656 -4.273438 L 2.472656 -5.398438 L 1.269531 -5.398438 L 1.1875 -4.839844 C 1.121094 -4.394531 1 -4.273438 0.515625 -4.273438 L 0.128906 -4.273438 L 0.128906 -3.054688 L 0.921875 -3.054688 L 0.921875 -1.65625 C 0.921875 -0.574219 1.542969 0 2.714844 0 Z M 2.714844 0 "/></g></g></g><g fill="#80cc28" fill-opacity="1"><g transform="translate(54.377826, 17.100366)"><g><path d="M 0.542969 0 L 2.09375 0 L 2.09375 -1.824219 C 2.09375 -2.554688 2.40625 -2.882812 3.101562 -2.882812 L 3.59375 -2.882812 L 3.59375 -4.273438 L 3.09375 -4.273438 C 2.496094 -4.273438 2.117188 -4.113281 1.851562 -3.742188 L 1.65625 -4.273438 L 0.542969 -4.273438 Z M 0.542969 0 "/></g></g></g><g fill="#80cc28" fill-opacity="1"><g transform="translate(58.223205, 17.100366)"><g><path d="M 2.738281 0.121094 C 4.21875 0.121094 5.21875 -0.792969 5.21875 -2.140625 C 5.21875 -3.480469 4.21875 -4.394531 2.738281 -4.394531 C 1.253906 -4.394531 0.25 -3.480469 0.25 -2.140625 C 0.25 -0.792969 1.253906 0.121094 2.738281 0.121094 Z M 1.769531 -2.140625 C 1.769531 -2.707031 2.171875 -3.109375 2.738281 -3.109375 C 3.304688 -3.109375 3.699219 -2.707031 3.699219 -2.140625 C 3.699219 -1.566406 3.304688 -1.164062 2.738281 -1.164062 C 2.171875 -1.164062 1.769531 -1.566406 1.769531 -2.140625 Z M 1.769531 -2.140625 "/></g></g></g><g fill="#80cc28" fill-opacity="1"><g transform="translate(63.692366, 17.100366)"><g><path d="M 0.597656 0 L 2.214844 0 L 2.214844 -2.867188 L 3.304688 -1.339844 L 4.363281 -1.339844 L 5.445312 -2.859375 L 5.445312 0 L 7.0625 0 L 7.0625 -5.65625 L 5.734375 -5.65625 L 3.828125 -2.964844 L 1.929688 -5.65625 L 0.597656 -5.65625 Z M 0.597656 0 "/></g></g></g><g fill="#80cc28" fill-opacity="1"><g transform="translate(71.350808, 17.100366)"><g><path d="M 2.667969 0.121094 C 3.773438 0.121094 4.621094 -0.429688 5 -1.382812 L 3.5 -1.382812 C 3.328125 -1.179688 3.03125 -1.050781 2.699219 -1.050781 C 2.261719 -1.050781 1.898438 -1.285156 1.785156 -1.753906 L 5.082031 -1.753906 C 5.164062 -3.34375 4.199219 -4.394531 2.675781 -4.394531 C 1.246094 -4.394531 0.25 -3.472656 0.25 -2.140625 C 0.25 -0.800781 1.234375 0.121094 2.667969 0.121094 Z M 1.792969 -2.59375 C 1.921875 -3.003906 2.261719 -3.230469 2.691406 -3.230469 C 3.160156 -3.230469 3.472656 -2.988281 3.601562 -2.59375 Z M 1.792969 -2.59375 "/></g></g></g><g fill="#80cc28" fill-opacity="1"><g transform="translate(76.674556, 17.100366)"><g><path d="M 1.964844 0.0976562 C 2.578125 0.0976562 3.09375 -0.105469 3.457031 -0.46875 L 3.628906 0 L 4.742188 0 L 4.742188 -2.488281 C 4.742188 -3.707031 3.976562 -4.394531 2.601562 -4.394531 C 1.40625 -4.394531 0.6875 -3.855469 0.558594 -2.867188 L 2.011719 -2.867188 C 2.050781 -3.117188 2.292969 -3.289062 2.609375 -3.289062 C 2.957031 -3.289062 3.230469 -3.085938 3.230469 -2.804688 L 3.230469 -2.5625 L 1.792969 -2.5625 C 0.914062 -2.5625 0.347656 -2.035156 0.347656 -1.253906 C 0.347656 -0.421875 0.976562 0.0976562 1.964844 0.0976562 Z M 1.867188 -1.324219 C 1.867188 -1.566406 2.078125 -1.710938 2.40625 -1.710938 L 3.246094 -1.710938 C 3.246094 -1.246094 2.890625 -0.929688 2.421875 -0.929688 C 2.09375 -0.929688 1.867188 -1.082031 1.867188 -1.324219 Z M 1.867188 -1.324219 "/></g></g></g><g fill="#80cc28" fill-opacity="1"><g transform="translate(81.877127, 17.100366)"><g><path d="M 0.542969 0 L 2.09375 0 L 2.09375 -5.976562 L 0.542969 -5.976562 Z M 0.542969 0 "/></g></g></g></svg>